<?xml version="1.0" encoding="UTF-8" standalone="no"?>
<!DOCTYPE svg PUBLIC "-//W3C//DTD SVG 1.1//EN" "http://www.w3.org/Graphics/SVG/1.1/DTD/svg11.dtd">
<svg width="100%" height="100%" viewBox="0 0 32 32" version="1.1" xmlns="http://www.w3.org/2000/svg" xmlns:xlink="http://www.w3.org/1999/xlink" xml:space="preserve" xmlns:serif="http://www.serif.com/" style="fill-rule:evenodd;clip-rule:evenodd;stroke-linejoin:round;stroke-miterlimit:2;">
    <g id="text-medica-logo.svg">
    </g>
    <g transform="matrix(1,0,0,1,1,1.57448)">
        <g transform="matrix(0.082685,0.0477382,-0.0596728,0.103356,3.48399,-12.2941)">
            <path d="M200,108.75C200,107.251 199,105.865 197.377,105.115C195.753,104.366 193.753,104.366 192.13,105.115C179.143,111.114 153.691,122.869 143.935,127.376C141.5,128.5 140,130.579 140,132.828L140,251.25C140,252.749 141,254.135 142.623,254.885C144.247,255.634 146.247,255.634 147.87,254.885C160.857,248.886 186.309,237.131 196.065,232.624C198.5,231.5 200,229.421 200,227.172L200,108.75Z" style="fill:rgb(225,36,84);"/>
        </g>
        <g transform="matrix(0.082685,0.0477382,-0.0596728,0.103356,13.9921,-12.2941)">
            <path d="M200,108.75C200,107.251 199,105.865 197.377,105.115C195.753,104.366 193.753,104.366 192.13,105.115C179.143,111.114 153.691,122.869 143.935,127.376C141.5,128.5 140,130.579 140,132.828L140,251.25C140,252.749 141,254.135 142.623,254.885C144.247,255.634 146.247,255.634 147.87,254.885C160.857,248.886 186.309,237.131 196.065,232.624C198.5,231.5 200,229.421 200,227.172L200,108.75Z" style="fill:rgb(225,36,84);"/>
        </g>
        <g transform="matrix(0.0927124,0,0,0.0927124,-5.89231,-3.55282)">
            <circle cx="356.242" cy="235.108" r="30.894" style="fill:rgb(225,36,84);"/>
        </g>
    </g>
</svg>
