<?xml version="1.0" encoding="UTF-8" standalone="no"?>
<!DOCTYPE svg PUBLIC "-//W3C//DTD SVG 1.1//EN" "http://www.w3.org/Graphics/SVG/1.1/DTD/svg11.dtd">
<svg width="100%" height="100%" viewBox="0 0 1600 670" version="1.1" xmlns="http://www.w3.org/2000/svg" xmlns:xlink="http://www.w3.org/1999/xlink" xml:space="preserve" xmlns:serif="http://www.serif.com/" style="fill-rule:evenodd;clip-rule:evenodd;stroke-linejoin:round;stroke-miterlimit:2;">
    <g transform="matrix(1.26291,0,0,1.26291,-30.8938,-207.296)">
        <g>
            <g transform="matrix(1.30698,0.754585,-0.943232,1.63372,97.2064,-107.992)">
                <path d="M200,108.75C200,107.251 199,105.865 197.377,105.115C195.753,104.366 193.753,104.366 192.13,105.115C179.143,111.114 153.691,122.869 143.935,127.376C141.5,128.5 140,130.579 140,132.828L140,251.25C140,252.749 141,254.135 142.623,254.885C144.247,255.634 146.247,255.634 147.87,254.885C160.857,248.886 186.309,237.131 196.065,232.624C198.5,231.5 200,229.421 200,227.172L200,108.75Z" style="fill:rgb(225,36,84);"/>
            </g>
            <g transform="matrix(1.30698,0.754585,-0.943232,1.63372,263.305,-107.992)">
                <path d="M200,108.75C200,107.251 199,105.865 197.377,105.115C195.753,104.366 193.753,104.366 192.13,105.115C179.143,111.114 153.691,122.869 143.935,127.376C141.5,128.5 140,130.579 140,132.828L140,251.25C140,252.749 141,254.135 142.623,254.885C144.247,255.634 146.247,255.634 147.87,254.885C160.857,248.886 186.309,237.131 196.065,232.624C198.5,231.5 200,229.421 200,227.172L200,108.75Z" style="fill:rgb(225,36,84);"/>
            </g>
            <g transform="matrix(1.46548,0,0,1.46548,-51.0022,30.1783)">
                <circle cx="356.242" cy="235.108" r="30.894" style="fill:rgb(225,36,84);"/>
            </g>
            <g transform="matrix(1,0,0,1,-11.5051,20.2889)">
                <path d="M702.394,337.929L586.417,337.929C588.092,348.156 592.567,356.289 599.84,362.328C607.113,368.367 616.392,371.387 627.677,371.387C641.166,371.387 652.759,366.67 662.457,357.237L692.873,371.519C685.291,382.275 676.21,390.231 665.631,395.389C655.051,400.546 642.488,403.125 627.941,403.125C605.372,403.125 586.99,396.006 572.796,381.768C558.602,367.53 551.505,349.699 551.505,328.276C551.505,306.323 558.58,288.096 572.73,273.593C586.88,259.091 604.623,251.839 625.958,251.839C648.615,251.839 667.041,259.091 681.235,273.593C695.429,288.096 702.526,307.249 702.526,331.053L702.394,337.929ZM666.292,309.497C663.907,301.474 659.205,294.95 652.184,289.925C645.164,284.9 637.017,282.387 627.743,282.387C617.676,282.387 608.845,285.208 601.251,290.851C596.482,294.377 592.066,300.593 588.004,309.497L666.292,309.497Z" style="fill:rgb(34,58,102);fill-rule:nonzero;"/>
                <path d="M837.811,200L873.913,200L873.913,399.422L837.811,399.422L837.811,384.214C830.766,390.915 823.699,395.741 816.611,398.695C809.522,401.648 801.839,403.125 793.561,403.125C774.981,403.125 758.91,395.918 745.349,381.503C731.788,367.089 725.008,349.17 725.008,327.747C725.008,305.53 731.568,287.324 744.689,273.13C757.81,258.936 773.749,251.839 792.505,251.839C801.134,251.839 809.235,253.47 816.808,256.732C824.381,259.994 831.382,264.887 837.811,271.411L837.811,200ZM799.859,285.164C788.7,285.164 779.43,289.11 772.049,297C764.668,304.891 760.978,315.007 760.978,327.35C760.978,339.781 764.734,350.007 772.246,358.03C779.759,366.053 789.006,370.064 799.989,370.064C811.325,370.064 820.727,366.119 828.195,358.229C835.664,350.338 839.398,340.001 839.398,327.218C839.398,314.699 835.664,304.56 828.195,296.802C820.727,289.044 811.282,285.164 799.859,285.164Z" style="fill:rgb(34,58,102);fill-rule:nonzero;"/>
                <path d="M924.496,196.297C930.826,196.297 936.254,198.589 940.782,203.174C945.309,207.758 947.572,213.312 947.572,219.836C947.572,226.272 945.331,231.76 940.848,236.301C936.365,240.841 931.002,243.111 924.761,243.111C918.343,243.111 912.87,240.797 908.343,236.168C903.816,231.54 901.552,225.92 901.552,219.307C901.552,212.96 903.794,207.538 908.277,203.042C912.76,198.545 918.166,196.297 924.496,196.297ZM906.445,255.542L942.547,255.542L942.547,399.422L906.445,399.422L906.445,255.542Z" style="fill:rgb(34,58,102);fill-rule:nonzero;"/>
                <path d="M1116.18,284.635L1086.13,301.166C1080.48,295.259 1074.89,291.159 1069.38,288.867C1063.86,286.575 1057.4,285.429 1049.98,285.429C1036.48,285.429 1025.55,289.456 1017.21,297.51C1008.87,305.565 1004.7,315.885 1004.7,328.472C1004.7,340.708 1008.72,350.7 1016.75,358.446C1024.78,366.191 1035.33,370.064 1048.39,370.064C1064.55,370.064 1077.13,364.554 1086.13,353.534L1114.6,373.025C1099.17,393.092 1077.39,403.125 1049.27,403.125C1023.97,403.125 1004.15,395.631 989.824,380.644C975.498,365.656 968.335,348.112 968.335,328.011C968.335,314.081 971.817,301.254 978.782,289.528C985.747,277.803 995.466,268.59 1007.94,261.89C1020.42,255.189 1034.37,251.839 1049.8,251.839C1064.08,251.839 1076.91,254.682 1088.28,260.369C1099.65,266.055 1108.95,274.144 1116.18,284.635Z" style="fill:rgb(34,58,102);fill-rule:nonzero;"/>
                <path d="M1254.9,255.542L1291.01,255.542L1291.01,399.422L1254.9,399.422L1254.9,384.214C1247.86,390.915 1240.79,395.741 1233.7,398.695C1226.62,401.648 1218.93,403.125 1210.65,403.125C1192.08,403.125 1176,395.918 1162.44,381.503C1148.88,367.089 1142.1,349.17 1142.1,327.747C1142.1,305.53 1148.66,287.324 1161.78,273.13C1174.9,258.936 1190.84,251.839 1209.6,251.839C1218.23,251.839 1226.33,253.47 1233.9,256.732C1241.48,259.994 1248.48,264.887 1254.9,271.411L1254.9,255.542ZM1216.95,285.164C1205.79,285.164 1196.52,289.11 1189.14,297C1181.76,304.891 1178.07,315.007 1178.07,327.35C1178.07,339.781 1181.83,350.007 1189.34,358.03C1196.85,366.053 1206.1,370.064 1217.08,370.064C1228.42,370.064 1237.82,366.119 1245.29,358.229C1252.76,350.338 1256.49,340.001 1256.49,327.218C1256.49,314.699 1252.76,304.56 1245.29,296.802C1237.82,289.044 1228.38,285.164 1216.95,285.164Z" style="fill:rgb(34,58,102);fill-rule:nonzero;"/>
            </g>
            <g transform="matrix(0.791822,0,0,0.791822,29.3372,124.32)">
                <g transform="matrix(1,0,0,1,-6.15644,0)">
                    <path d="M284.367,608.384C279.834,608.384 275.627,610.746 273.267,614.617C266.416,625.854 252.214,649.148 246.923,657.828C245.652,659.912 243.387,661.184 240.946,661.184C232.192,661.184 210.769,661.184 196.833,661.184C194.27,661.184 191.912,659.783 190.686,657.532C189.46,655.281 189.562,652.54 190.952,650.387C218.378,607.913 318.357,453.078 339.244,420.732C341.638,417.024 345.751,414.784 350.165,414.784C360.089,414.784 378.191,414.784 389.564,414.784C395.549,414.784 400.76,418.87 402.189,424.682C412.04,464.774 448.892,614.756 458.17,652.514C458.683,654.602 458.208,656.811 456.881,658.503C455.554,660.195 453.523,661.184 451.372,661.184C439.49,661.184 418.827,661.184 408.907,661.184C405.619,661.184 402.774,658.896 402.07,655.684C400.149,646.925 396.364,629.67 393.935,618.599C392.627,612.634 387.343,608.384 381.237,608.384C358.301,608.384 304.055,608.384 284.367,608.384ZM315.516,545.321C313.069,549.334 312.979,554.355 315.28,558.453C317.581,562.551 321.915,565.088 326.615,565.088C339.284,565.088 354.668,565.088 366.037,565.088C369.974,565.088 373.698,563.304 376.166,560.236C378.634,557.169 379.578,553.148 378.735,549.303C375.902,536.39 371.807,517.72 368.304,501.752C367.166,496.565 362.989,492.592 357.751,491.715C352.514,490.839 347.271,493.236 344.506,497.77C335.22,513.002 323.91,531.553 315.516,545.321Z" style="fill:rgb(34,58,102);fill-rule:nonzero;"/>
                </g>
                <g transform="matrix(1,0,0,1,-6.15644,0)">
                    <path d="M642.336,486.307C644.16,488.019 646.768,488.607 649.151,487.844C651.533,487.081 653.314,485.087 653.805,482.634C658.245,460.996 666.352,420.465 669.319,405.627C669.973,402.355 672.846,400 676.183,400C685.87,400 705.515,400 716.822,400C718.919,400 720.905,400.94 722.235,402.561C723.564,404.182 724.097,406.313 723.687,408.369C715.652,448.653 681.074,622.013 674.384,655.553C673.731,658.827 670.857,661.184 667.519,661.184C657.003,661.184 634.875,661.184 625.504,661.184C624.441,661.184 623.434,660.706 622.762,659.882C622.09,659.058 621.824,657.975 622.038,656.933C622.039,656.932 622.039,656.93 622.039,656.928C622.494,654.716 621.584,652.446 619.726,651.161C617.869,649.876 615.423,649.825 613.513,651.03C611.604,652.263 609.635,653.415 607.612,654.496C595.762,660.832 582.21,664 566.956,664C552.407,664 538.914,660.656 526.476,653.968C514.039,647.28 504.066,637.6 496.556,624.928C489.047,612.256 485.292,597.003 485.292,579.168C485.292,563.211 487.932,548.544 493.212,535.168C498.492,521.792 505.943,510.176 515.564,500.32C525.186,490.464 536.332,482.779 549.004,477.264C561.676,471.749 575.287,468.992 589.836,468.992C604.62,468.992 617.41,471.573 628.204,476.736C633.492,479.265 638.202,482.455 642.336,486.307ZM583.852,618.592C594.647,618.592 604.21,615.952 612.54,610.672C620.871,605.392 627.442,598.117 632.252,588.848C637.063,579.579 639.468,568.725 639.468,556.288C639.468,543.381 635.655,533.173 628.028,525.664C620.402,518.155 609.783,514.4 596.172,514.4C585.612,514.4 576.108,517.04 567.66,522.32C559.212,527.6 552.583,534.875 547.772,544.144C542.962,553.413 540.556,564.267 540.556,576.704C540.556,589.611 544.37,599.819 551.996,607.328C559.623,614.837 570.242,618.592 583.852,618.592Z" style="fill:rgb(34,58,102);fill-rule:nonzero;"/>
                </g>
                <g transform="matrix(1,0,0,1,-6.15644,0)">
                    <path d="M924.061,494.161C925.012,495.485 926.492,496.328 928.115,496.472C929.738,496.615 931.344,496.044 932.512,494.908C937.679,489.915 943.314,485.622 949.404,482.016C964.071,473.333 980.791,468.992 999.564,468.992C1015.52,468.992 1029.02,472.336 1040.04,479.024C1051.07,485.712 1058.93,495.509 1063.63,508.416C1068.32,521.323 1068.67,537.28 1064.68,556.288C1064.68,556.288 1049.35,633.754 1045.03,655.544C1044.38,658.822 1041.51,661.184 1038.17,661.184C1028.47,661.184 1008.83,661.184 997.531,661.184C995.436,661.184 993.451,660.245 992.121,658.626C990.791,657.006 990.257,654.876 990.666,652.82C995.474,628.607 1009.07,560.16 1009.07,560.16C1012.12,546.08 1011.18,535.285 1006.25,527.776C1001.32,520.267 992.759,516.512 980.556,516.512C967.65,516.512 956.972,520.325 948.524,527.952C940.076,535.579 934.21,547.605 930.924,564.032C930.924,564.032 916.816,634.832 912.687,655.552C912.034,658.826 909.16,661.184 905.822,661.184C896.131,661.184 876.484,661.184 865.179,661.184C863.084,661.184 861.099,660.245 859.769,658.626C858.439,657.006 857.905,654.876 858.314,652.82C863.122,628.607 876.716,560.16 876.716,560.16C879.532,546.08 878.535,535.285 873.724,527.776C868.914,520.267 860.407,516.512 848.204,516.512C835.298,516.512 824.62,520.325 816.172,527.952C807.724,535.579 801.74,547.84 798.22,564.736C798.22,564.736 784.393,634.897 780.325,655.538C779.679,658.819 776.802,661.184 773.457,661.184C763.763,661.184 744.13,661.184 732.83,661.184C730.734,661.184 728.748,660.245 727.419,658.625C726.089,657.005 725.555,654.874 725.964,652.819C732.387,620.523 755.476,504.433 760.844,477.443C761.495,474.167 764.37,471.808 767.709,471.808C778.039,471.808 799.568,471.808 809.209,471.808C810.399,471.808 811.525,472.343 812.277,473.264C813.029,474.185 813.327,475.396 813.089,476.561C813.089,476.562 813.089,476.563 813.088,476.565C812.631,478.805 813.554,481.102 815.434,482.403C817.315,483.704 819.79,483.758 821.725,482.539C823.794,481.194 825.937,479.97 828.14,478.848C841.047,472.277 854.775,468.992 869.324,468.992C881.058,468.992 891.618,471.104 901.004,475.328C910.391,479.552 918.076,485.829 924.06,494.16C924.061,494.16 924.061,494.161 924.061,494.161Z" style="fill:rgb(34,58,102);fill-rule:nonzero;"/>
                </g>
                <path d="M1095.92,661.184C1093.83,661.184 1091.84,660.245 1090.51,658.625C1089.18,657.005 1088.65,654.874 1089.06,652.819C1095.48,620.523 1118.57,504.433 1123.93,477.443C1124.59,474.167 1127.46,471.808 1130.8,471.808C1140.43,471.808 1159.86,471.808 1171.09,471.808C1173.18,471.808 1175.17,472.747 1176.5,474.367C1177.83,475.987 1178.36,478.118 1177.95,480.173C1171.53,512.469 1148.44,628.559 1143.07,655.549C1142.42,658.825 1139.55,661.184 1136.21,661.184C1126.58,661.184 1107.15,661.184 1095.92,661.184ZM1161.66,445.408C1152.04,445.408 1144.3,442.651 1138.43,437.136C1132.57,431.621 1129.63,424.875 1129.63,416.896C1129.63,407.509 1132.98,399.707 1139.66,393.488C1146.35,387.269 1155.09,384.16 1165.89,384.16C1175.51,384.16 1183.31,386.8 1189.3,392.08C1195.28,397.36 1198.27,403.872 1198.27,411.616C1198.27,421.707 1194.93,429.861 1188.24,436.08C1181.55,442.299 1172.69,445.408 1161.66,445.408Z" style="fill:rgb(34,58,102);fill-rule:nonzero;"/>
                <g transform="matrix(1,0,0,1,-6.15644,0)">
                    <path d="M1287.88,476.868C1287.42,479.118 1288.34,481.426 1290.22,482.74C1292.11,484.054 1294.59,484.123 1296.55,482.916C1299.01,481.345 1301.58,479.937 1304.22,478.672C1317.71,472.219 1331.97,468.992 1346.99,468.992C1363.18,468.992 1376.91,472.336 1388.17,479.024C1399.44,485.712 1407.41,495.509 1412.11,508.416C1416.8,521.323 1417.27,537.28 1413.52,556.288C1413.52,556.288 1397.91,633.807 1393.53,655.566C1392.87,658.833 1390,661.184 1386.66,661.184C1376.99,661.184 1357.35,661.184 1346.04,661.184C1343.94,661.184 1341.95,660.242 1340.62,658.618C1339.29,656.994 1338.76,654.86 1339.17,652.802C1344.06,628.514 1357.9,559.808 1357.9,559.808C1360.72,545.963 1359.6,535.285 1354.56,527.776C1349.51,520.267 1340.3,516.512 1326.92,516.512C1313.08,516.512 1301.52,520.501 1292.25,528.48C1282.98,536.459 1276.59,548.661 1273.07,565.088C1273.07,565.088 1259.25,634.957 1255.18,655.542C1254.53,658.821 1251.65,661.184 1248.31,661.184C1238.62,661.184 1218.98,661.184 1207.68,661.184C1205.58,661.184 1203.6,660.245 1202.27,658.625C1200.94,657.005 1200.4,654.874 1200.81,652.819C1207.24,620.523 1230.32,504.433 1235.69,477.443C1236.34,474.167 1239.22,471.808 1242.56,471.808C1252.78,471.808 1273.96,471.808 1283.75,471.808C1285.01,471.808 1286.21,472.377 1287.01,473.357C1287.81,474.337 1288.13,475.624 1287.88,476.864C1287.88,476.865 1287.88,476.867 1287.88,476.868Z" style="fill:rgb(34,58,102);fill-rule:nonzero;"/>
                </g>
            </g>
        </g>
    </g>
</svg>
